# xmcd CD database file
#
# Track frame offsets:
#	150
#	26637
#	44932
#	65717
#	87762
#	109167
#	125925
#	143317
#	163937
#	182382
#
# Disc length: 2675 seconds
#
# Revision: 11
# Processed by: cddbd v1.5.2PL0 Copyright (c) Steve Scherf et al.
# Submitted via: CDex 1.70beta3
#
DISCID=8f0a710a
DTITLE=アバ - ジ・アルバム
DYEAR=1977
DGENRE=Pop
TTITLE0=イーグル
TTITLE1=テイク・ア・チャンス
TTITLE2=ワン・マン、ワン・ウーマン
TTITLE3=きらめきの序曲
TTITLE4=ムーヴ・オン
TTITLE5=ホール・イン・ユアー・ソウル
TTITLE6=サンキュー・フォー・ザ・ミュージック
TTITLE7=アイ・ワンダー
TTITLE8=アイム・ア・マリオネット
TTITLE9=サンキュー・フォー・ザ・ミュージック （ドリス・デイ・ヴァージョン）
EXTD=YEAR: 1977
EXTT0=
EXTT1=
EXTT2=
EXTT3=
EXTT4=
EXTT5=
EXTT6=
EXTT7=
EXTT8=
EXTT9=
PLAYORDER=
